<svg width="206" height="51" viewBox="0 0 206 51" fill="none" xmlns="http://www.w3.org/2000/svg">
<path d="M0.88 45H3.03C5.3 45 6.69 43.55 6.69 41.46C6.69 39.36 5.25 37.9 3 37.9H0.88V45ZM1.75 44.21V38.69H3.01C4.67 38.69 5.79 39.84 5.79 41.46C5.79 43.06 4.71 44.21 2.98 44.21H1.75ZM10.0659 45.06C10.8559 45.06 11.4559 44.7 11.8059 44.12H11.8159V45H12.5959V40.13H11.7859V40.99L11.7659 41C11.4159 40.41 10.7859 40.07 10.0659 40.07C8.68586 40.07 7.69586 41.16 7.69586 42.6C7.69586 44.08 8.72586 45.06 10.0659 45.06ZM10.1859 44.32C9.18586 44.32 8.51586 43.58 8.51586 42.6C8.51586 41.52 9.26586 40.81 10.1859 40.81C11.1459 40.81 11.8159 41.6 11.8159 42.6C11.8159 43.63 11.0859 44.32 10.1859 44.32ZM16.121 45.06C16.911 45.06 17.531 44.69 17.881 44.1H17.891V45H18.671V37.64H17.861V41H17.851C17.481 40.41 16.851 40.07 16.111 40.07C14.741 40.07 13.731 41.16 13.731 42.6C13.731 44.08 14.771 45.06 16.121 45.06ZM16.231 44.32C15.241 44.32 14.561 43.58 14.561 42.6C14.561 41.52 15.311 40.81 16.241 40.81C17.221 40.81 17.891 41.6 17.891 42.6C17.891 43.63 17.151 44.32 16.231 44.32ZM22.3938 45.06C23.8338 45.06 24.9038 44.05 24.9038 42.57C24.9038 41.09 23.8338 40.07 22.3938 40.07C20.8838 40.07 19.8738 41.17 19.8738 42.57C19.8738 43.97 20.8838 45.06 22.3938 45.06ZM22.3938 44.32C21.3838 44.32 20.7038 43.54 20.7038 42.57C20.7038 41.6 21.3738 40.81 22.3938 40.81C23.3338 40.81 24.0738 41.53 24.0738 42.57C24.0738 43.61 23.3238 44.32 22.3938 44.32ZM27.5816 45.06C28.7516 45.06 29.3316 44.43 29.3316 43.67C29.3416 42.72 28.6616 42.54 27.6316 42.14C27.1016 41.95 26.7116 41.76 26.7116 41.38C26.7116 41.01 27.0816 40.79 27.4616 40.79C27.8816 40.79 28.3316 40.92 28.7516 41.31L29.1716 40.67C28.6316 40.23 28.0816 40.07 27.4916 40.07C26.5716 40.07 25.8916 40.63 25.8916 41.38C25.8916 42.27 26.5616 42.59 27.3516 42.87C28.0616 43.13 28.5116 43.25 28.5116 43.68C28.5116 44.05 28.1716 44.34 27.5816 44.34C26.9016 44.34 26.4716 44.12 26.0916 43.75L25.6816 44.37C26.1516 44.78 26.7716 45.06 27.5816 45.06ZM35.2714 45.06C36.0614 45.06 36.6814 44.69 37.0314 44.1H37.0414V45H37.8214V37.64H37.0114V41H37.0014C36.6314 40.41 36.0014 40.07 35.2614 40.07C33.8914 40.07 32.8814 41.16 32.8814 42.6C32.8814 44.08 33.9214 45.06 35.2714 45.06ZM35.3814 44.32C34.3914 44.32 33.7114 43.58 33.7114 42.6C33.7114 41.52 34.4614 40.81 35.3914 40.81C36.3714 40.81 37.0414 41.6 37.0414 42.6C37.0414 43.63 36.3014 44.32 35.3814 44.32ZM43.6642 42.48C43.6642 41.09 42.7542 40.07 41.4242 40.07C40.0342 40.07 39.0242 41.1 39.0242 42.57C39.0242 44.06 40.0442 45.06 41.4842 45.06C42.4642 45.06 43.0742 44.69 43.4942 44.15L42.9242 43.67C42.6242 44.04 42.1642 44.32 41.5142 44.32C40.5942 44.32 39.9542 43.72 39.8442 42.81H43.6442C43.6442 42.75 43.6642 42.61 43.6642 42.48ZM41.4142 40.81C42.2142 40.81 42.7342 41.35 42.8542 42.15H39.8642C40.0142 41.32 40.6342 40.81 41.4142 40.81ZM47.6364 45H48.4464V37.64H47.6364V45ZM52.2376 45.06C53.6776 45.06 54.7476 44.05 54.7476 42.57C54.7476 41.09 53.6776 40.07 52.2376 40.07C50.7276 40.07 49.7176 41.17 49.7176 42.57C49.7176 43.97 50.7276 45.06 52.2376 45.06ZM52.2376 44.32C51.2276 44.32 50.5476 43.54 50.5476 42.57C50.5476 41.6 51.2176 40.81 52.2376 40.81C53.1776 40.81 53.9176 41.53 53.9176 42.57C53.9176 43.61 53.1676 44.32 52.2376 44.32ZM58.1053 47.04C59.8053 47.04 60.5053 46.04 60.5053 44.64V40.13H59.6953V40.91H59.6753C59.2853 40.38 58.6553 40.07 57.9653 40.07C56.5953 40.07 55.6353 41.11 55.6353 42.5C55.6353 43.95 56.6653 44.91 57.9953 44.91C58.7453 44.91 59.3253 44.58 59.6853 44.06H59.7053V44.84C59.7053 45.66 59.1753 46.3 58.0753 46.3C57.3753 46.3 56.8853 46.11 56.3253 45.79L56.1253 46.51C56.7053 46.86 57.3753 47.04 58.1053 47.04ZM58.0953 44.16C57.1753 44.16 56.4553 43.51 56.4553 42.48C56.4553 41.53 57.1153 40.82 58.1053 40.82C59.0153 40.82 59.7253 41.48 59.7253 42.46C59.7253 43.43 59.0753 44.16 58.0953 44.16ZM62.4214 39.24C62.7514 39.24 63.0114 38.98 63.0114 38.66C63.0114 38.34 62.7514 38.08 62.4214 38.08C62.0914 38.08 61.8314 38.34 61.8314 38.66C61.8314 38.98 62.0914 39.24 62.4214 39.24ZM62.0114 45H62.8214V40.13H62.0114V45ZM64.4026 45H65.2126V42.57C65.2126 41.47 65.8126 40.81 66.7326 40.81C67.4426 40.81 67.9326 41.2 67.9326 42.34V45H68.7426V42.11C68.7426 40.72 68.0426 40.07 66.9926 40.07C66.2426 40.07 65.6026 40.42 65.2226 41.01H65.2126V40.13H64.4026V45Z" fill="black"/>
<path d="M118.88 45H121.03C123.3 45 124.69 43.55 124.69 41.46C124.69 39.36 123.25 37.9 121 37.9H118.88V45ZM119.75 44.21V38.69H121.01C122.67 38.69 123.79 39.84 123.79 41.46C123.79 43.06 122.71 44.21 120.98 44.21H119.75ZM128.066 45.06C128.856 45.06 129.456 44.7 129.806 44.12H129.816V45H130.596V40.13H129.786V40.99L129.766 41C129.416 40.41 128.786 40.07 128.066 40.07C126.686 40.07 125.696 41.16 125.696 42.6C125.696 44.08 126.726 45.06 128.066 45.06ZM128.186 44.32C127.186 44.32 126.516 43.58 126.516 42.6C126.516 41.52 127.266 40.81 128.186 40.81C129.146 40.81 129.816 41.6 129.816 42.6C129.816 43.63 129.086 44.32 128.186 44.32ZM134.121 45.06C134.911 45.06 135.531 44.69 135.881 44.1H135.891V45H136.671V37.64H135.861V41H135.851C135.481 40.41 134.851 40.07 134.111 40.07C132.741 40.07 131.731 41.16 131.731 42.6C131.731 44.08 132.771 45.06 134.121 45.06ZM134.231 44.32C133.241 44.32 132.561 43.58 132.561 42.6C132.561 41.52 133.311 40.81 134.241 40.81C135.221 40.81 135.891 41.6 135.891 42.6C135.891 43.63 135.151 44.32 134.231 44.32ZM140.394 45.06C141.834 45.06 142.904 44.05 142.904 42.57C142.904 41.09 141.834 40.07 140.394 40.07C138.884 40.07 137.874 41.17 137.874 42.57C137.874 43.97 138.884 45.06 140.394 45.06ZM140.394 44.32C139.384 44.32 138.704 43.54 138.704 42.57C138.704 41.6 139.374 40.81 140.394 40.81C141.334 40.81 142.074 41.53 142.074 42.57C142.074 43.61 141.324 44.32 140.394 44.32ZM145.582 45.06C146.752 45.06 147.332 44.43 147.332 43.67C147.342 42.72 146.662 42.54 145.632 42.14C145.102 41.95 144.712 41.76 144.712 41.38C144.712 41.01 145.082 40.79 145.462 40.79C145.882 40.79 146.332 40.92 146.752 41.31L147.172 40.67C146.632 40.23 146.082 40.07 145.492 40.07C144.572 40.07 143.892 40.63 143.892 41.38C143.892 42.27 144.562 42.59 145.352 42.87C146.062 43.13 146.512 43.25 146.512 43.68C146.512 44.05 146.172 44.34 145.582 44.34C144.902 44.34 144.472 44.12 144.092 43.75L143.682 44.37C144.152 44.78 144.772 45.06 145.582 45.06ZM153.271 45.06C154.061 45.06 154.681 44.69 155.031 44.1H155.041V45H155.821V37.64H155.011V41H155.001C154.631 40.41 154.001 40.07 153.261 40.07C151.891 40.07 150.881 41.16 150.881 42.6C150.881 44.08 151.921 45.06 153.271 45.06ZM153.381 44.32C152.391 44.32 151.711 43.58 151.711 42.6C151.711 41.52 152.461 40.81 153.391 40.81C154.371 40.81 155.041 41.6 155.041 42.6C155.041 43.63 154.301 44.32 153.381 44.32ZM159.384 45.06C160.174 45.06 160.774 44.7 161.124 44.12H161.134V45H161.914V40.13H161.104V40.99L161.084 41C160.734 40.41 160.104 40.07 159.384 40.07C158.004 40.07 157.014 41.16 157.014 42.6C157.014 44.08 158.044 45.06 159.384 45.06ZM159.504 44.32C158.504 44.32 157.834 43.58 157.834 42.6C157.834 41.52 158.584 40.81 159.504 40.81C160.464 40.81 161.134 41.6 161.134 42.6C161.134 43.63 160.404 44.32 159.504 44.32ZM170.424 42.48C170.424 41.09 169.514 40.07 168.184 40.07C166.794 40.07 165.784 41.1 165.784 42.57C165.784 44.06 166.804 45.06 168.244 45.06C169.224 45.06 169.834 44.69 170.254 44.15L169.684 43.67C169.384 44.04 168.924 44.32 168.274 44.32C167.354 44.32 166.714 43.72 166.604 42.81H170.404C170.404 42.75 170.424 42.61 170.424 42.48ZM168.174 40.81C168.974 40.81 169.494 41.35 169.614 42.15H166.624C166.774 41.32 167.394 40.81 168.174 40.81ZM171.612 45H172.422V42.58C172.422 41.49 173.022 40.81 173.822 40.81C174.552 40.81 174.952 41.38 174.952 42.42V45H175.762V42.58C175.762 41.49 176.372 40.81 177.132 40.81C177.872 40.81 178.242 41.38 178.242 42.42V45H179.052V42.2C179.052 40.81 178.452 40.07 177.372 40.07C176.612 40.07 175.952 40.45 175.582 41.11H175.572C175.322 40.44 174.792 40.07 174.062 40.07C173.412 40.07 172.802 40.42 172.432 41.01H172.422V40.13H171.612V45ZM180.459 46.98H181.269V44.16H181.279C181.639 44.72 182.239 45.06 183.009 45.06C184.349 45.06 185.379 44.08 185.379 42.6C185.379 41.16 184.389 40.07 183.009 40.07C182.269 40.07 181.649 40.41 181.279 40.99H181.269V40.13H180.459V46.98ZM182.899 44.32C181.969 44.32 181.229 43.63 181.229 42.6C181.229 41.6 181.899 40.81 182.889 40.81C183.809 40.81 184.559 41.52 184.559 42.6C184.559 43.58 183.879 44.32 182.899 44.32ZM186.602 45H187.412V42.65C187.412 41.67 187.962 40.96 188.892 40.96C188.972 40.96 189.092 40.97 189.212 40.98V40.08C189.142 40.07 189.082 40.07 189.012 40.07C188.342 40.07 187.782 40.43 187.432 41.02H187.412V40.13H186.602V45ZM194.301 42.48C194.301 41.09 193.391 40.07 192.061 40.07C190.671 40.07 189.661 41.1 189.661 42.57C189.661 44.06 190.681 45.06 192.121 45.06C193.101 45.06 193.711 44.69 194.131 44.15L193.561 43.67C193.261 44.04 192.801 44.32 192.151 44.32C191.231 44.32 190.591 43.72 190.481 42.81H194.281C194.281 42.75 194.301 42.61 194.301 42.48ZM192.051 40.81C192.851 40.81 193.371 41.35 193.491 42.15H190.501C190.651 41.32 191.271 40.81 192.051 40.81ZM196.959 45.06C198.129 45.06 198.709 44.43 198.709 43.67C198.719 42.72 198.039 42.54 197.009 42.14C196.479 41.95 196.089 41.76 196.089 41.38C196.089 41.01 196.459 40.79 196.839 40.79C197.259 40.79 197.709 40.92 198.129 41.31L198.549 40.67C198.009 40.23 197.459 40.07 196.869 40.07C195.949 40.07 195.269 40.63 195.269 41.38C195.269 42.27 195.939 42.59 196.729 42.87C197.439 43.13 197.889 43.25 197.889 43.68C197.889 44.05 197.549 44.34 196.959 44.34C196.279 44.34 195.849 44.12 195.469 43.75L195.059 44.37C195.529 44.78 196.149 45.06 196.959 45.06ZM201.787 45.06C202.577 45.06 203.177 44.7 203.527 44.12H203.537V45H204.317V40.13H203.507V40.99L203.487 41C203.137 40.41 202.507 40.07 201.787 40.07C200.407 40.07 199.417 41.16 199.417 42.6C199.417 44.08 200.447 45.06 201.787 45.06ZM201.907 44.32C200.907 44.32 200.237 43.58 200.237 42.6C200.237 41.52 200.987 40.81 201.907 40.81C202.867 40.81 203.537 41.6 203.537 42.6C203.537 43.63 202.807 44.32 201.907 44.32Z" fill="black"/>
<circle cx="35" cy="14" r="13" fill="#006B3F"/>
<circle cx="160" cy="13" r="13" fill="#FFB719"/>
<line x1="46.9912" y1="12.5" x2="146.991" y2="12.5" stroke="black"/>
<path d="M35.56 10.13L33.42 11.64L34.06 12.83L35 12.13L34.4 17H35.97L36.81 10.13H35.56Z" fill="white"/>
<path d="M158.04 16H162.17L162.35 14.59H160.33V14.57L161.43 13.44C162.23 12.61 162.76 11.84 162.76 10.8C162.76 9.69 161.92 9.04 160.94 9.04C159.92 9.04 159.09 9.6 158.65 10.32L159.69 11.16C159.97 10.72 160.38 10.48 160.69 10.48C161.01 10.48 161.17 10.69 161.17 11.01C161.17 11.65 160.63 12.28 160.17 12.77L158.13 14.99L158.04 16Z" fill="white"/>
</svg>
